<svg id='Duplicate_24' width='24' height='24' viewBox='0 0 24 24' xmlns='http://www.w3.org/2000/svg' xmlns:xlink='http://www.w3.org/1999/xlink'><rect width='24' height='24' stroke='none' fill='#000000' opacity='0'/>


<g transform="matrix(0.5 0 0 0.5 12 12)" >
<path style="stroke: none; stroke-width: 1; stroke-dasharray: none; stroke-linecap: butt; stroke-dashoffset: 0; stroke-linejoin: miter; stroke-miterlimit: 4; fill: rgb(0,0,0); fill-rule: nonzero; opacity: 1;" transform=" translate(-24, -24)" d="M 14.5 7 C 11.480226 7 9 9.4802259 9 12.5 L 9 30.5 C 9 33.519774 11.480226 36 14.5 36 L 38.5 36 C 41.519774 36 44 33.519774 44 30.5 L 44 12.5 C 44 9.4802259 41.519774 7 38.5 7 L 14.5 7 z M 14.5 10 L 38.5 10 C 39.898226 10 41 11.101774 41 12.5 L 41 30.5 C 41 31.898226 39.898226 33 38.5 33 L 14.5 33 C 13.101774 33 12 31.898226 12 30.5 L 12 12.5 C 12 11.101774 13.101774 10 14.5 10 z M 7 12 L 5.78125 12.8125 C 4.66825 13.5545 4 14.803625 4 16.140625 L 4 31.5 C 4 36.747 8.253 41 13.5 41 L 34.859375 41 C 36.197375 41 37.4465 40.33175 38.1875 39.21875 L 39 38 L 13.5 38 C 9.91 38 7 35.09 7 31.5 L 7 12 z M 26.476562 14.978516 C 25.648901510673372 14.991446372085091 24.98812720333533 15.6723236642177 25 16.5 L 25 20 L 21.5 20 C 20.959046125133643 19.992349565681767 20.455877953142583 20.276562944253993 20.183168417770215 20.743809274571493 C 19.910458882397847 21.211055604888994 19.910458882397847 21.788944395111006 20.183168417770215 22.256190725428507 C 20.455877953142583 22.723437055746007 20.959046125133643 23.007650434318233 21.5 23 L 25 23 L 25 26.5 C 24.992349565681767 27.040953874866357 25.276562944253993 27.544122046857417 25.743809274571493 27.816831582229785 C 26.211055604888994 28.089541117602153 26.78894439511101 28.089541117602153 27.256190725428507 27.816831582229785 C 27.723437055746007 27.544122046857417 28.007650434318233 27.040953874866357 28 26.5 L 28 23 L 31.5 23 C 32.040953874866354 23.007650434318233 32.54412204685742 22.723437055746007 32.81683158222979 22.256190725428507 C 33.08954111760215 21.788944395111006 33.08954111760215 21.211055604888994 32.81683158222979 20.743809274571493 C 32.54412204685742 20.276562944253993 32.040953874866354 19.992349565681767 31.5 20 L 28 20 L 28 16.5 C 28.005818528115803 16.09438134618371 27.84711884746851 15.703697162002683 27.560089622295813 15.417036087753083 C 27.273060397123114 15.130375013503485 26.88217285196387 14.97217688631442 26.476562 14.978516 z" stroke-linecap="round" />
</g>
</svg>