<svg id='Brainstorm_Skill_24' width='24' height='24' viewBox='0 0 24 24' xmlns='http://www.w3.org/2000/svg' xmlns:xlink='http://www.w3.org/1999/xlink'><rect width='24' height='24' stroke='none' fill='#000000' opacity='0'/>


<g transform="matrix(0.45 0 0 0.45 12 12)" >
<path style="stroke: none; stroke-width: 1; stroke-dasharray: none; stroke-linecap: butt; stroke-dashoffset: 0; stroke-linejoin: miter; stroke-miterlimit: 4; fill: rgb(0,0,0); fill-rule: nonzero; opacity: 1;" transform=" translate(-25.01, -25.01)" d="M 24.921875 3 C 18.581252 3 14.303756 4.9302084 11.599609 8.0019531 C 8.9557509 11.005216 7.8672852 14.978385 7.3984375 19.066406 L 3.3457031 26.050781 C 3.34239998916704 26.05595923547642 3.3391446510431746 26.061167789808504 3.3359374999999996 26.066406 C 2.646307 27.307427 3.0876317 28.925449 4.3378906 29.621094 C 4.3507677151565325 29.627887892696403 4.363791653001834 29.634399778265852 4.3769531 29.640625 L 7.4199219 31.162109 L 8.3984375 37.929688 C 8.399057062694931 37.93424944061999 8.39970811154542 37.93880654923453 8.4003906 37.943359 C 8.6154808 39.287826 9.3136276 40.53304 10.292969 41.470703 C 11.272309 42.408367 12.573122 43.05731 14.001953 43 L 17 43 L 17 46 L 17 47 L 17.832031 47 C 17.940022437464606 47.017849048052845 18.050211562535395 47.017849048052845 18.158203 47 L 19 47 L 19 45 L 19 42 C 18.99994478209465 41.44773812379154 18.55226187620846 41.00005521790535 18 41 L 13.962891 41 C 13.949220437550615 40.99971961318139 13.935545562449384 40.99971961318139 13.921875 41 C 13.15671 41.03069 12.347191 40.67018 11.675781 40.027344 C 11.004372 39.384507 10.51091 38.478439 10.375 37.628906 L 9.3242188 30.359375 C 9.277423262171752 30.03487745422238 9.074551954693545 29.75392265852848 8.78125 29.607422 L 5.3105469 27.873047 C 4.9828058 27.690692 4.897568 27.378042 5.0859375 27.039062 L 9.2011719 19.947266 C 9.271257595529963 19.82621680549476 9.315171904171068 19.691812098686302 9.3300781 19.552734 C 9.7571873 15.578233 10.80346 11.932771 13.101562 9.3222656 C 15.399668 6.7117604 18.976498 5 24.921875 5 C 25.607616 5 26.266517 5.0348609 26.912109 5.0917969 C 27.27137352391855 5.129481696561986 27.62303891546871 4.970498341620966 27.832078349000604 4.67589070888378 C 28.041117782532492 4.381283076146595 28.075039045104077 3.9968437406097896 27.920817595440806 3.6701835402454046 C 27.76659614577753 3.3435233398810187 27.448203519287926 3.125416966385237 27.087891 3.0996094 C 26.395483 3.0385451 25.676134 3 24.921875 3 z M 37 3 C 31.494165 3 27 7.4413793 27 12.908203 C 27 16.24509 28.457858 18.295978 29.785156 19.652344 C 30.448805 20.330527 31.068478 20.8645 31.460938 21.320312 C 31.853395 21.776127 32 22.0719 32 22.453125 L 32 25 L 32 26 L 32 28.818359 C 32 30.031592 33.056857 30.935734 34.179688 30.990234 C 34.590935 32.154487 35.701526 33 37 33 C 38.298474 33 39.409065 32.154487 39.820312 30.990234 C 40.942839 30.935734 42 30.031592 42 28.818359 L 42 26 L 42 25 L 42 22.455078 C 42 21.841495 42.183287 21.460863 42.5625 20.986328 C 42.941713 20.511793 43.538383 20.001847 44.195312 19.367188 C 45.509172 18.097869 47 16.188841 47 12.910156 C 47 7.4424436 42.505835 3 37 3 z M 37 5 C 41.436165 5 45 8.5338698 45 12.910156 C 45 15.633471 43.990828 16.783756 42.804688 17.929688 C 42.211616 18.502652 41.558287 19.03966 41 19.738281 C 40.441713 20.436903 40 21.355161 40 22.455078 L 40 25 L 38 25 L 38 16.414062 L 40.707031 13.707031 C 41.00427300446327 13.421201743972194 41.09560262953893 12.982234538647958 40.93702842550951 12.601570126553543 C 40.77845422148009 12.220905714459128 40.402491839666666 11.976599359184013 39.990234 11.986328 C 39.72646288845357 11.992564309009637 39.47584256080842 12.102781325336911 39.292969 12.292969 L 37 14.585938 L 34.707031 12.292969 C 34.51875998115552 12.099435986448801 34.26023585854908 11.990249842732712 33.990234 11.990234 C 33.58331093338813 11.99034102751708 33.217025100118086 12.236989716506182 33.063903235086286 12.614004421849199 C 32.91078137005449 12.991019127192217 33.00135759590495 13.423219121112922 33.292969 13.707031 L 36 16.414062 L 36 25 L 34 25 L 34 22.453125 C 34 21.46385 33.521605 20.648655 32.976562 20.015625 C 32.431522 19.382595 31.801195 18.853098 31.214844 18.253906 C 30.042142 17.055522 29 15.701316 29 12.908203 C 29 8.5330273 32.563835 5 37 5 z M 34 27 L 40 27 L 40 28.818359 C 40 28.966931 39.965697 29 39.714844 29 L 34.285156 29 C 34.032659 29 34 28.966931 34 28.818359 L 34 27 z M 36.779297 34.986328 C 36.34127827223057 34.98264836623152 35.95183731984265 35.26443903007008 35.818359 35.681641 C 35.295238 37.244625 35 38.894009 35 40.59375 L 35 45 L 35 46 L 35 47 L 35.832031 47 C 35.940022437464606 47.017849048052845 36.050211562535395 47.017849048052845 36.158203 47 L 37 47 L 37 46 L 37 45 L 37 40.59375 C 37 39.125491 37.253965 37.695375 37.714844 36.318359 C 37.82206308749936 36.01365419661409 37.77551084353435 35.67592483166491 37.58985588519254 35.411589464425205 C 37.404200926850734 35.14725409718551 37.10230554240063 34.98886403368758 36.779297 34.986328 z" stroke-linecap="round" />
</g>
</svg>